<svg id="albums-commented-vokis-icon" xmlns="http://www.w3.org/2000/svg" viewBox="0 0 24 24" fill="none">
    <path
        d="M12 21C7.28595 21 4.92893 21 3.46447 19.5355C2 18.0711 2 15.714 2 11V7.94427C2 6.1278 2 5.21956 2.38032 4.53806C2.65142 4.05227 3.05227 3.65142 3.53806 3.38032C4.21956 3 5.1278 3 6.94427 3C8.10802 3 8.6899 3 9.19926 3.19101C10.3622 3.62712 10.8418 4.68358 11.3666 5.73313L12 7M8 7H16.75C18.8567 7 19.91 7 20.6667 7.50559C20.9943 7.72447 21.2755 8.00572 21.4944 8.33329C22 9.08996 22 10.1433 22 12.25"
        stroke="currentColor" stroke-linecap="round"/>
    <path d="M22 15H15M22 18H15M17.5 21H15" stroke="currentColor" stroke-linecap="round" stroke-linejoin="round"/>
</svg>

<svg id="albums-rated-vokis-icon" xmlns="http://www.w3.org/2000/svg" viewBox="0 0 24 24" fill="none">
    <path
        d="M12.0027 21C7.28739 21 4.92973 21 3.46487 19.5355C2 18.0711 2 15.714 2 11V7.94427C2 6.1278 2 5.21956 2.38042 4.53806C2.6516 4.05227 3.05255 3.65142 3.53848 3.38032C4.22017 3 5.12865 3 6.94562 3C8.10968 3 8.69172 3 9.20122 3.19101C10.3645 3.62712 10.8442 4.68358 11.3691 5.73313L12.0027 7M8.00163 7H16.754C18.8613 7 19.9149 7 20.6718 7.50559C20.9995 7.72447 21.2808 8.00572 21.4997 8.33329C21.8937 8.92282 21.9808 9.69244 22 11"
        stroke="currentColor" stroke-linecap="round"/>
    <path
        d="M20.586 13.331C18.7898 12.3795 17.5 13.7821 17.5 13.7821C17.5 13.7821 16.2102 12.3795 14.4139 13.331C12.2383 14.4834 12.0821 18.9964 17.5 21C22.9179 18.9964 22.7616 14.4834 20.586 13.331Z"
        stroke="currentColor" stroke-linecap="round" stroke-linejoin="round"/>
</svg>

<svg id="albums-taken-vokis-icon" xmlns="http://www.w3.org/2000/svg" viewBox="0 0 24 24" fill="none">
    <path
        d="M12 21C7.28595 21 4.92893 21 3.46447 19.5355C2 18.0711 2 15.714 2 11V7.94427C2 6.1278 2 5.21956 2.38032 4.53806C2.65142 4.05227 3.05227 3.65142 3.53806 3.38032C4.21956 3 5.1278 3 6.94427 3C8.10802 3 8.6899 3 9.19926 3.19101C10.3622 3.62712 10.8418 4.68358 11.3666 5.73313L12 7M8 7H16.75C18.8567 7 19.91 7 20.6667 7.50559C20.9943 7.72447 21.2755 8.00572 21.4944 8.33329C21.9796 9.05942 21.9992 10.0588 22 12"
        stroke="currentColor" stroke-linecap="round"/>
    <path d="M14 19C14 19 15 19 16 21C16 21 19.1765 16 22 15" stroke="currentColor" stroke-linecap="round"
        stroke-linejoin="round"/>
</svg>

<svg id="albums-bookmark-1-icon" xmlns="http://www.w3.org/2000/svg" viewBox="0 0 24 24" fill="none">
    <path
        d="M4 17.9808V9.70753C4 6.07416 4 4.25748 5.17157 3.12874C6.34315 2 8.22876 2 12 2C15.7712 2 17.6569 2 18.8284 3.12874C20 4.25748 20 6.07416 20 9.70753V17.9808C20 20.2867 20 21.4396 19.2272 21.8523C17.7305 22.6514 14.9232 19.9852 13.59 19.1824C12.8168 18.7168 12.4302 18.484 12 18.484C11.5698 18.484 11.1832 18.7168 10.41 19.1824C9.0768 19.9852 6.26947 22.6514 4.77285 21.8523C4 21.4396 4 20.2867 4 17.9808Z"
        stroke="var(--icon-color-1)" stroke-linecap="round" stroke-linejoin="round" />
    <path d="M4 7H20" stroke="var(--icon-color-2)" />
</svg>

<svg id="albums-bookmark-2-icon" xmlns="http://www.w3.org/2000/svg" viewBox="0 0 24 24" fill="none">
    <path
        d="M12 22.0002C7.75736 22.0002 5.63604 22.0002 4.31802 20.5358C3 19.0713 3 16.7143 3 12.0002C3 7.28617 3 4.92915 4.31802 3.46468C5.63604 2.00022 7.75736 2.00022 12 2.00022C16.2426 2.00022 18.364 2.00022 19.682 3.46468C21 4.92915 21 7.28617 21 12.0002C21 16.7143 21 19.0713 19.682 20.5358C18.364 22.0002 16.2426 22.0002 12 22.0002Z"
        stroke="var(--icon-color-1)" stroke-linecap="round" stroke-linejoin="round" />
    <path
        d="M8 2.5V9.82621C8 11.0733 8 11.6969 8.38642 11.9201C9.13473 12.3523 10.5384 10.9103 11.205 10.4761C11.5916 10.2243 11.7849 10.0984 12 10.0984C12.2151 10.0984 12.4084 10.2243 12.795 10.4761C13.4616 10.9103 14.8653 12.3523 15.6136 11.9201C16 11.6969 16 11.0733 16 9.82621V2.5"
        stroke="var(--icon-color-2)" stroke-linecap="round" stroke-linejoin="round" />
</svg>

<svg id="albums-clock-1-icon" xmlns="http://www.w3.org/2000/svg" viewBox="0 0 24 24" fill="none">
    <circle cx="12" cy="12" r="10" stroke="var(--icon-color-1)" />
    <path d="M12 8V12L14 14" stroke="var(--icon-color-2)" stroke-linecap="round" stroke-linejoin="round" />
</svg>

<svg id="albums-clock-2-icon" xmlns="http://www.w3.org/2000/svg" viewBox="0 0 24 24" fill="none">
    <path
        d="M2.5 12C2.5 7.52166 2.5 5.28249 3.89124 3.89124C5.28249 2.5 7.52166 2.5 12 2.5C16.4783 2.5 18.7175 2.5 20.1088 3.89124C21.5 5.28249 21.5 7.52166 21.5 12C21.5 16.4783 21.5 18.7175 20.1088 20.1088C18.7175 21.5 16.4783 21.5 12 21.5C7.52166 21.5 5.28249 21.5 3.89124 20.1088C2.5 18.7175 2.5 16.4783 2.5 12Z"
        stroke="var(--icon-color-1)" stroke-linejoin="round" />
    <path d="M9 9L13.0001 12.9996M16 8L11 13" stroke="var(--icon-color-2)" stroke-linecap="round"
        stroke-linejoin="round" />
</svg>

<svg id="albums-star-1-icon" xmlns="http://www.w3.org/2000/svg" viewBox="0 0 24 24" fill="none">
    <path
        d="M2 12C2 7.52166 2 5.28249 3.39124 3.89124C4.78249 2.5 7.02166 2.5 11.5 2.5C15.9783 2.5 18.2175 2.5 19.6088 3.89124C21 5.28249 21 7.52166 21 12C21 16.4783 21 18.7175 19.6088 20.1088C18.2175 21.5 15.9783 21.5 11.5 21.5C7.02166 21.5 4.78249 21.5 3.39124 20.1088C2 18.7175 2 16.4783 2 12Z"
        stroke="var(--icon-color-1)" stroke-linejoin="round" />
    <path
        d="M12.3638 7.72209L13.2437 9.49644C13.3637 9.74344 13.6837 9.98035 13.9536 10.0257L15.5485 10.2929C16.5684 10.4643 16.8083 11.2103 16.0734 11.9462L14.8335 13.1964C14.6236 13.4081 14.5086 13.8164 14.5736 14.1087L14.9285 15.6562C15.2085 16.8812 14.5636 17.355 13.4887 16.7148L11.9939 15.8226C11.7239 15.6613 11.2789 15.6613 11.004 15.8226L9.50913 16.7148C8.43925 17.355 7.78932 16.8761 8.06929 15.6562L8.42425 14.1087C8.48925 13.8164 8.37426 13.4081 8.16428 13.1964L6.92442 11.9462C6.1945 11.2103 6.42947 10.4643 7.44936 10.2929L9.04419 10.0257C9.30916 9.98035 9.62912 9.74344 9.74911 9.49644L10.629 7.72209C11.109 6.7593 11.8889 6.7593 12.3638 7.72209Z"
        stroke="var(--icon-color-2)" stroke-linecap="round" stroke-linejoin="round" />
</svg>

<svg id="albums-star-2-icon" xmlns="http://www.w3.org/2000/svg" viewBox="0 0 24 24" fill="none">
    <path
        d="M11.6686 5.21225C11.8066 4.92946 12.1934 4.92947 12.3314 5.21225L13.1449 6.87978C13.1989 6.99046 13.3003 7.06749 13.4178 7.08703L15.1862 7.38122C15.4859 7.43108 15.6054 7.81473 15.391 8.0392L14.125 9.36513C14.0412 9.45297 14.0025 9.57736 14.021 9.69991L14.3 11.5504C14.3473 11.8638 14.0345 12.101 13.7638 11.957L12.1688 11.1083C12.0628 11.0518 11.9372 11.0518 11.8312 11.1083L10.2362 11.957C9.96554 12.101 9.65271 11.8638 9.69996 11.5504L9.979 9.69991C9.99748 9.57736 9.95882 9.45297 9.87495 9.36513L8.60896 8.0392C8.39464 7.81473 8.51408 7.43108 8.8138 7.38122L10.5822 7.08703C10.6997 7.06749 10.8011 6.99046 10.8551 6.87978L11.6686 5.21225Z"
        stroke="var(--icon-color-2)" stroke-linecap="round" stroke-linejoin="round" />
    <path d="M19 9C19 12.866 15.866 16 12 16C8.13401 16 5 12.866 5 9C5 5.13401 8.13401 2 12 2C15.866 2 19 5.13401 19 9Z"
        stroke="var(--icon-color-1)" stroke-linecap="round" stroke-linejoin="round" />
    <path
        d="M13 16.3424L14.6264 20.6513C14.9541 21.5195 15.118 21.9536 15.403 22C15.6887 21.9578 16.0387 21.4804 16.3808 20.6172C16.6258 19.9991 16.7482 19.6901 17.0005 19.5235C17.0779 19.4724 17.1625 19.432 17.252 19.4035C17.5436 19.3108 17.879 19.4015 18.5497 19.5828C19.2669 19.7767 19.7651 19.7226 19.9618 19.5828C20.0197 19.5417 19.9618 19.5797 19.9618 19.5797C20.0776 19.3743 19.9213 19.0539 19.6088 18.4131L17.4561 14"
        stroke="var(--icon-color-2)" stroke-linecap="round" stroke-linejoin="round" />
    <path
        d="M11 16.3421L9.3736 20.6503C9.0459 21.5183 8.72171 21.9536 8.43671 22C8.15097 21.9578 7.97992 21.5263 7.63781 20.6632C7.39287 20.0453 7.25175 19.6893 6.99948 19.5226C6.92213 19.4715 6.83745 19.4312 6.74803 19.4027C6.45638 19.31 6.12101 19.4007 5.45027 19.582C4.73308 19.7758 4.2349 19.7186 4.03815 19.5788C3.92237 19.3735 4.07866 19.0531 4.39123 18.4124L6.54387 14"
        stroke="var(--icon-color-2)" stroke-linecap="round" stroke-linejoin="round" />
</svg>