<svg id="caret-up-icon" xmlns="http://www.w3.org/2000/svg" viewBox="0 0 640 640" fill="currentColor">
    <path
        d="M160 416C147.1 416 135.4 408.2 130.4 396.2C125.4 384.2 128.2 370.5 137.4 361.4L297.4 201.4C309.9 188.9 330.2 188.9 342.7 201.4L502.7 361.4C511.9 370.6 514.6 384.3 509.6 396.3C504.6 408.3 492.9 416 480 416L160 416z" />
</svg>
<svg id="caret-down-icon" xmlns="http://www.w3.org/2000/svg" viewBox="0 0 640 640" fill="currentColor">
    <path
        d="M480 224C492.9 224 504.6 231.8 509.6 243.8C514.6 255.8 511.8 269.5 502.7 278.7L342.7 438.7C330.2 451.2 309.9 451.2 297.4 438.7L137.4 278.7C128.2 269.5 125.5 255.8 130.5 243.8C135.5 231.8 147.1 224 160 224L480 224z" />
</svg>
<svg id="caret-left-icon" xmlns="http://www.w3.org/2000/svg" viewBox="0 0 24 24" fill="none">
    <path d="M15 6C15 6 9.00001 10.4189 9 12C8.99999 13.5812 15 18 15 18" stroke="currentColor" stroke-linecap="round"
        stroke-linejoin="round" />
</svg>
<svg id="caret-right-icon" viewBox="0 0 24 24" fill="none">
    <path d="M9.00005 6C9.00005 6 15 10.4189 15 12C15 13.5812 9 18 9 18" stroke="currentColor" stroke-linecap="round"
        stroke-linejoin="round"></path>
</svg>