<svg id="common-minus-icon" color="currentColor" xmlns="http://www.w3.org/2000/svg" viewBox="0 0 24 24" fill="none">
    <path d="M20 12L4 12" stroke="currentColor" stroke-linecap="round" stroke-linejoin="round" />
</svg>
<svg id="common-cross-icon" color="currentColor" xmlns="http://www.w3.org/2000/svg" viewBox="0 0 24 24" fill="none">
    <path d="M18 6L6.00081 17.9992M17.9992 18L6 6.00085" stroke="currentColor" stroke-linecap="round"
        stroke-linejoin="round" />
</svg>
<svg id="common-check-icon" color="currentColor" xmlns="http://www.w3.org/2000/svg" viewBox="0 0 24 24" fill="none">
    <path d="M5 14.5C5 14.5 6.5 14.5 8.5 18C8.5 18 14.0588 8.83333 19 7" stroke="currentColor" stroke-linecap="round"
        stroke-linejoin="round" />
</svg>
<svg id="common-plus-icon" color="currentColor" xmlns="http://www.w3.org/2000/svg" viewBox="0 0 24 24" fill="none">
    <path d="M12 4V20M20 12H4" stroke="currentColor" stroke-linecap="round" stroke-linejoin="round" />
</svg>
<svg id="common-more-icon" color="currentColor" xmlns="http://www.w3.org/2000/svg" viewBox="0 0 24 24" fill="none">
    <path d="M11.992 12H12.001" stroke="currentColor" stroke-linecap="round" stroke-linejoin="round" />
    <path d="M11.9842 18H11.9932" stroke="currentColor" stroke-linecap="round" stroke-linejoin="round" />
    <path d="M11.9998 6H12.0088" stroke="currentColor" stroke-linecap="round" stroke-linejoin="round" />
</svg>
<svg id="common-crossed-circle-icon" xmlns="http://www.w3.org/2000/svg" viewBox="0 0 24 24" color="currentColor"
    fill="none">
    <path d="M5.25 5L19.25 19" stroke="currentColor" stroke-linecap="round" stroke-linejoin="round">
    </path>
    <path
        d="M22.25 12C22.25 6.47715 17.7728 2 12.25 2C6.72715 2 2.25 6.47715 2.25 12C2.25 17.5228 6.72715 22 12.25 22C17.7728 22 22.25 17.5228 22.25 12Z"
        stroke="currentColor"></path>
</svg>
<svg id="common-trash-can-icon" xmlns="http://www.w3.org/2000/svg" viewBox="0 0 24 24" fill="none">
    <path
        d="M19.5 5.5L18.8803 15.5251C18.7219 18.0864 18.6428 19.3671 18.0008 20.2879C17.6833 20.7431 17.2747 21.1273 16.8007 21.416C15.8421 22 14.559 22 11.9927 22C9.42312 22 8.1383 22 7.17905 21.4149C6.7048 21.1257 6.296 20.7408 5.97868 20.2848C5.33688 19.3626 5.25945 18.0801 5.10461 15.5152L4.5 5.5"
        stroke-linecap="round" stroke="currentColor" />
    <path
        d="M3 5.5H21M16.0557 5.5L15.3731 4.09173C14.9196 3.15626 14.6928 2.68852 14.3017 2.39681C14.215 2.3321 14.1231 2.27454 14.027 2.2247C13.5939 2 13.0741 2 12.0345 2C10.9688 2 10.436 2 9.99568 2.23412C9.8981 2.28601 9.80498 2.3459 9.71729 2.41317C9.32164 2.7167 9.10063 3.20155 8.65861 4.17126L8.05292 5.5"
        stroke-linecap="round" stroke="currentColor" />
    <path d="M9.5 16.5L9.5 10.5" stroke-linecap="round" stroke="currentColor" />
    <path d="M14.5 16.5L14.5 10.5" stroke-linecap="round" stroke="currentColor" />
</svg>

<svg id="common-order-icon" xmlns="http://www.w3.org/2000/svg" viewBox="0 0 24 24" fill="none">
    <path
        d="M3 4.5C3 3.67157 3.67157 3 4.5 3H6.5C7.32843 3 8 3.67157 8 4.5V6.5C8 7.32843 7.32843 8 6.5 8H4.5C3.67157 8 3 7.32843 3 6.5V4.5Z"
        stroke="currentColor"></path>
    <path
        d="M3 17.5C3 16.6716 3.67157 16 4.5 16H6.5C7.32843 16 8 16.6716 8 17.5V19.5C8 20.3284 7.32843 21 6.5 21H4.5C3.67157 21 3 20.3284 3 19.5V17.5Z"
        stroke="currentColor"></path>
    <path d="M8.00002 18.5H21M16 5.5H8.00002M16.3235 7.67649L7.64868 16.3513" stroke="currentColor"
        stroke-linecap="round" stroke-linejoin="round"></path>
    <path
        d="M16 4.5C16 3.67157 16.6716 3 17.5 3H19.5C20.3284 3 21 3.67157 21 4.5V6.5C21 7.32843 20.3284 8 19.5 8H17.5C16.6716 8 16 7.32843 16 6.5V4.5Z"
        stroke="currentColor"></path>
    <path d="M18 21L19.3883 20.0537C20.4628 19.3213 21 18.9551 21 18.5C21 18.0449 20.4628 17.6787 19.3883 16.9463L18 16"
        stroke="currentColor" stroke-linecap="round" stroke-linejoin="round"></path>
</svg>

<svg id="common-shuffle-icon" xmlns="http://www.w3.org/2000/svg" viewBox="0 0 24 24" fill="none">
    <path
        d="M19.5576 4L20.4551 4.97574C20.8561 5.41165 21.0566 5.62961 20.9861 5.81481C20.9155 6 20.632 6 20.0649 6C18.7956 6 17.2771 5.79493 16.1111 6.4733C15.3903 6.89272 14.8883 7.62517 14.0392 9M3 18H4.58082C6.50873 18 7.47269 18 8.2862 17.5267C9.00708 17.1073 9.50904 16.3748 10.3582 15"
        stroke="currentColor" stroke-linecap="round" stroke-linejoin="round" />
    <path
        d="M19.5576 20L20.4551 19.0243C20.8561 18.5883 21.0566 18.3704 20.9861 18.1852C20.9155 18 20.632 18 20.0649 18C18.7956 18 17.2771 18.2051 16.1111 17.5267C15.2976 17.0534 14.7629 16.1815 13.6935 14.4376L10.7038 9.5624C9.63441 7.81853 9.0997 6.9466 8.2862 6.4733C7.47269 6 6.50873 6 4.58082 6H3"
        stroke="currentColor" stroke-linecap="round" stroke-linejoin="round" />
</svg>