<svg id="common-minus-icon" color="currentColor" xmlns="http://www.w3.org/2000/svg" viewBox="0 0 24 24" fill="none">
    <path d="M20 12L4 12" stroke="currentColor" stroke-linecap="round" stroke-linejoin="round" />
</svg>
<svg id="common-cross-icon" color="currentColor" xmlns="http://www.w3.org/2000/svg" viewBox="0 0 24 24" fill="none">
    <path d="M18 6L6.00081 17.9992M17.9992 18L6 6.00085" stroke="currentColor" stroke-linecap="round"
        stroke-linejoin="round" />
</svg>
<svg id="common-check-icon" color="currentColor" xmlns="http://www.w3.org/2000/svg" viewBox="0 0 24 24" fill="none">
    <path d="M5 14.5C5 14.5 6.5 14.5 8.5 18C8.5 18 14.0588 8.83333 19 7" stroke="currentColor" stroke-linecap="round"
        stroke-linejoin="round" />
</svg>
<svg id="common-plus-icon" color="currentColor" xmlns="http://www.w3.org/2000/svg" viewBox="0 0 24 24" fill="none">
    <path d="M12 4V20M20 12H4" stroke="currentColor" stroke-linecap="round" stroke-linejoin="round" />
</svg>
<svg id="common-more-icon" color="currentColor" xmlns="http://www.w3.org/2000/svg" viewBox="0 0 24 24" fill="none">
    <path d="M11.992 12H12.001" stroke="currentColor" stroke-linecap="round" stroke-linejoin="round" />
    <path d="M11.9842 18H11.9932" stroke="currentColor" stroke-linecap="round" stroke-linejoin="round" />
    <path d="M11.9998 6H12.0088" stroke="currentColor" stroke-linecap="round" stroke-linejoin="round" />
</svg>
<svg id="common-crossed-circle-icon" xmlns="http://www.w3.org/2000/svg" viewBox="0 0 24 24" color="currentColor" fill="none">
    <path d="M5.25 5L19.25 19" stroke="currentColor" stroke-linecap="round" stroke-linejoin="round">
    </path>
    <path
        d="M22.25 12C22.25 6.47715 17.7728 2 12.25 2C6.72715 2 2.25 6.47715 2.25 12C2.25 17.5228 6.72715 22 12.25 22C17.7728 22 22.25 17.5228 22.25 12Z"
        stroke="currentColor"></path>
</svg>
<svg id="common-trash-can-icon" xmlns="http://www.w3.org/2000/svg" viewBox="0 0 24 24" fill="none">
    <path
        d="M19.5 5.5L18.8803 15.5251C18.7219 18.0864 18.6428 19.3671 18.0008 20.2879C17.6833 20.7431 17.2747 21.1273 16.8007 21.416C15.8421 22 14.559 22 11.9927 22C9.42312 22 8.1383 22 7.17905 21.4149C6.7048 21.1257 6.296 20.7408 5.97868 20.2848C5.33688 19.3626 5.25945 18.0801 5.10461 15.5152L4.5 5.5"
        stroke-linecap="round" stroke="currentColor" />
    <path
        d="M3 5.5H21M16.0557 5.5L15.3731 4.09173C14.9196 3.15626 14.6928 2.68852 14.3017 2.39681C14.215 2.3321 14.1231 2.27454 14.027 2.2247C13.5939 2 13.0741 2 12.0345 2C10.9688 2 10.436 2 9.99568 2.23412C9.8981 2.28601 9.80498 2.3459 9.71729 2.41317C9.32164 2.7167 9.10063 3.20155 8.65861 4.17126L8.05292 5.5"
        stroke-linecap="round"  stroke="currentColor"/>
    <path d="M9.5 16.5L9.5 10.5" stroke-linecap="round"  stroke="currentColor"/>
    <path d="M14.5 16.5L14.5 10.5" stroke-linecap="round" stroke="currentColor" />
</svg>