<svg id="context-menu-edit-icon" xmlns="http://www.w3.org/2000/svg" viewBox="0 0 24 24" color="currentColor"
    fill="none">
    <path
        d="M16.4249 4.60509L17.4149 3.6151C18.2351 2.79497 19.5648 2.79497 20.3849 3.6151C21.205 4.43524 21.205 5.76493 20.3849 6.58507L19.3949 7.57506M16.4249 4.60509L9.76558 11.2644C9.25807 11.772 8.89804 12.4078 8.72397 13.1041L8 16L10.8959 15.276C11.5922 15.102 12.228 14.7419 12.7356 14.2344L19.3949 7.57506M16.4249 4.60509L19.3949 7.57506"
        stroke="currentColor" stroke-linecap="round" stroke-linejoin="round" />
    <path
        d="M18.9999 13.5C18.9999 16.7875 18.9999 18.4312 18.092 19.5376C17.9258 19.7401 17.7401 19.9258 17.5375 20.092C16.4312 21 14.7874 21 11.4999 21H11C7.22876 21 5.34316 21 4.17159 19.8284C3.00003 18.6569 3 16.7712 3 13V12.5C3 9.21252 3 7.56879 3.90794 6.46244C4.07417 6.2599 4.2599 6.07417 4.46244 5.90794C5.56879 5 7.21252 5 10.5 5"
        stroke="currentColor" stroke-linecap="round" stroke-linejoin="round" />
</svg>
<svg id="context-menu-copy-from-album-icon" xmlns="http://www.w3.org/2000/svg" viewBox="0 0 24 24" color="currentColor"
    fill="none">
    <path
        d="M2 12V6.94975C2 6.06722 2 5.62595 2.06935 5.25839C2.37464 3.64031 3.64031 2.37464 5.25839 2.06935C5.62595 2 6.06722 2 6.94975 2C7.33642 2 7.52976 2 7.71557 2.01738C8.51665 2.09229 9.27652 2.40704 9.89594 2.92051C10.0396 3.03961 10.1763 3.17633 10.4497 3.44975L11 4C11.8158 4.81578 12.2237 5.22367 12.7121 5.49543C12.9804 5.64471 13.2651 5.7626 13.5604 5.84678C14.0979 6 14.6747 6 15.8284 6H16.2021C18.8345 6 20.1506 6 21.0062 6.76946C21.0849 6.84024 21.1598 6.91514 21.2305 6.99383C22 7.84935 22 9.16554 22 11.7979V14C22 17.7712 22 19.6569 20.8284 20.8284C19.6569 22 17.7712 22 14 22H10C6.22876 22 4.34315 22 3.17157 20.8284C2.51839 20.1752 2.22937 19.3001 2.10149 18"
        stroke="currentColor" stroke-linecap="round" />
    <path d="M2 15C8.44365 15 6.55635 15 13 15M13 15L8.875 12M13 15L8.875 18" stroke="currentColor"
        stroke-linecap="round" stroke-linejoin="round" />
</svg>
<svg id="context-menu-open-icon" xmlns="http://www.w3.org/2000/svg" viewBox="0 0 24 24" color="currentColor"
    fill="none">
    <path
        d="M11.0991 3.00012C7.45013 3.00669 5.53932 3.09629 4.31817 4.31764C3.00034 5.63568 3.00034 7.75704 3.00034 11.9997C3.00034 16.2424 3.00034 18.3638 4.31817 19.6818C5.63599 20.9999 7.75701 20.9999 11.9991 20.9999C16.241 20.9999 18.3621 20.9999 19.6799 19.6818C20.901 18.4605 20.9906 16.5493 20.9972 12.8998"
        stroke="currentColor" stroke-linecap="round" stroke-linejoin="round"></path>
    <path
        d="M20.556 3.49612L11.0487 13.0586M20.556 3.49612C20.062 3.00151 16.7343 3.04761 16.0308 3.05762M20.556 3.49612C21.05 3.99074 21.0039 7.32273 20.9939 8.02714"
        stroke="currentColor" stroke-linecap="round" stroke-linejoin="round"></path>
</svg>
<svg id="context-menu-delete-icon" viewBox="0 0 24 24" fill="none" xmlns="http://www.w3.org/2000/svg">
    <path d="M9.1709 4C9.58273 2.83481 10.694 2 12.0002 2C13.3064 2 14.4177 2.83481 14.8295 4" stroke="currentColor"
        stroke-linecap="round" />
    <path d="M20.5001 6H3.5" stroke="currentColor" stroke-linecap="round" />
    <path
        d="M18.8332 8.5L18.3732 15.3991C18.1962 18.054 18.1077 19.3815 17.2427 20.1907C16.3777 21 15.0473 21 12.3865 21H11.6132C8.95235 21 7.62195 21 6.75694 20.1907C5.89194 19.3815 5.80344 18.054 5.62644 15.3991L5.1665 8.5"
        stroke="currentColor" stroke-linecap="round" />
    <path d="M9.5 11L10 16" stroke="currentColor" stroke-linecap="round" />
    <path d="M14.5 11L14 16" stroke="currentColor" stroke-linecap="round" />
</svg>
<svg id="context-menu-copy-link-icon" xmlns="http://www.w3.org/2000/svg" viewBox="0 0 24 24" fill="none"
    stroke-linecap="round" stroke-linejoin="round">
    <path stroke="currentColor"
        d="M14.5563 13.2183C13.514 14.2606 11.8241 14.2606 10.7817 13.2183C9.73942 12.1759 9.73942 10.486 10.7817 9.44364L13.1409 7.0845C14.1357 6.08961 15.7206 6.04433 16.7692 6.94866M16.4437 3.78175C17.486 2.73942 19.1759 2.73942 20.2183 3.78175C21.2606 4.82408 21.2606 6.51403 20.2183 7.55636L17.8591 9.9155C16.8643 10.9104 15.2794 10.9557 14.2308 10.0513" />
    <path stroke="currentColor"
        d="M10.4999 3C7.21257 3 5.56889 3 4.46256 3.9079C4.25998 4.07414 4.07423 4.25989 3.90798 4.46247C3.00007 5.56879 3.00006 7.21247 3.00002 10.4998L3 12.9999C2.99996 16.7712 2.99995 18.6568 4.17152 19.8284C5.3431 21 7.22873 21 11 21H13.4999C16.7874 21 18.4311 21 19.5375 20.092C19.74 19.9258 19.9257 19.7401 20.092 19.5376C20.9999 18.4312 20.9999 16.7875 20.9999 13.5" />
</svg>
<svg id="context-menu-remove-from-album-icon" xmlns="http://www.w3.org/2000/svg" viewBox="0 0 24 24" fill="none"
    stroke-linecap="round">
    <path stroke="currentColor"
        d="M13 21H12C7.28595 21 4.92893 21 3.46447 19.5355C2 18.0711 2 15.714 2 11V7.94427C2 6.1278 2 5.21956 2.38032 4.53806C2.65142 4.05227 3.05227 3.65142 3.53806 3.38032C4.21956 3 5.1278 3 6.94427 3C8.10802 3 8.6899 3 9.19926 3.19101C10.3622 3.62712 10.8418 4.68358 11.3666 5.73313L12 7M8 7H16.75C18.8567 7 19.91 7 20.6667 7.50559C20.9943 7.72447 21.2755 8.00572 21.4944 8.33329C21.9796 9.05942 21.9992 10.0588 22 12" />
    <path stroke="currentColor" d="M22 15L16 21M22 21L16 15" />
</svg>

<svg id="context-menu-not-interested-icon" xmlns="http://www.w3.org/2000/svg" fill="none" viewBox="0 0 24 24">
    <path stroke="currentColor" stroke-linecap="round" stroke-linejoin="round"
        d="M12 23.25c6.2132 0 11.25 -5.0368 11.25 -11.25S18.2132 0.75 12 0.75 0.75 5.7868 0.75 12 5.7868 23.25 12 23.25Z">
    </path>
    <path stroke="currentColor" stroke-linecap="round" stroke-linejoin="round"
        d="M12 18c0.5588 -1.1263 1.4211 -2.0742 2.4897 -2.7367 1.0686 -0.6626 2.301 -1.0135 3.5583 -1.0133"></path>
    <path stroke="currentColor" d="M8.25 9.375c-0.20711 0 -0.375 -0.16789 -0.375 -0.375s0.16789 -0.375 0.375 -0.375">
    </path>
    <path stroke="currentColor" d="M8.25 9.375c0.20711 0 0.375 -0.16789 0.375 -0.375s-0.16789 -0.375 -0.375 -0.375">
    </path>
    <path stroke="currentColor" d="M15.75 9.375c-0.2071 0 -0.375 -0.16789 -0.375 -0.375s0.1679 -0.375 0.375 -0.375">
    </path>
    <path stroke="currentColor" d="M15.75 9.375c0.2071 0 0.375 -0.16789 0.375 -0.375s-0.1679 -0.375 -0.375 -0.375">
    </path>
</svg>

<svg id="context-menu-add-to-album-icon" xmlns="http://www.w3.org/2000/svg" viewBox="0 0 24 24" fill="none"
    stroke-linecap="round">
    <path stroke="currentColor"
        d="M13 21H12C7.28595 21 4.92893 21 3.46447 19.5355C2 18.0711 2 15.714 2 11V7.94427C2 6.1278 2 5.21956 2.38032 4.53806C2.65142 4.05227 3.05227 3.65142 3.53806 3.38032C4.21956 3 5.1278 3 6.94427 3C8.10802 3 8.6899 3 9.19926 3.19101C10.3622 3.62712 10.8418 4.68358 11.3666 5.73313L12 7M8 7H16.75C18.8567 7 19.91 7 20.6667 7.50559C20.9943 7.72447 21.2755 8.00572 21.4944 8.33329C21.9796 9.05942 21.9992 10.0588 22 12" />
    <path d="M18 13V21M22 17H14" stroke="currentColor" />
</svg>
<svg id="context-menu-report-icon" xmlns="http://www.w3.org/2000/svg" viewBox="0 0 24 24" fill="none"
    stroke-linecap="round" stroke-linejoin="round">
    <path stroke="currentColor"
        d="M9.6 8.05L14.5 12.95M15.55 10.5C15.55 8.567 13.983 7 12.05 7C10.117 7 8.55 8.567 8.55 10.5C8.55 12.433 10.117 14 12.05 14C13.983 14 15.55 12.433 15.55 10.5Z" />
    <path stroke="currentColor"
        d="M2 10.5C2 5.5 6 3 12 3C18 3 22 5.5 22 10.5C22 15.5 18 18 12 18V21C12 21 2 18 2 10.5Z" />
</svg>
<svg xmlns="http://www.w3.org/2000/svg" viewBox="0 0 24 24" fill="none" id="context-menu-manage-voki-icon">
    <path
        d="M20.3584 13.3567C19.1689 14.546 16.9308 14.4998 13.4992 14.4998C11.2914 14.4998 9.50138 12.7071 9.50024 10.4993C9.50024 7.07001 9.454 4.83065 10.6435 3.64138C11.8329 2.45212 12.3583 2.50027 17.6274 2.50027C18.1366 2.49809 18.3929 3.11389 18.0329 3.47394L15.3199 6.18714C14.6313 6.87582 14.6294 7.99233 15.3181 8.68092C16.0068 9.36952 17.1234 9.36959 17.8122 8.68109L20.5259 5.96855C20.886 5.60859 21.5019 5.86483 21.4997 6.37395C21.4997 11.6422 21.5479 12.1675 20.3584 13.3567Z"
        stroke="currentColor" />
    <path
        d="M13.5 14.5L7.32842 20.6716C6.22386 21.7761 4.433 21.7761 3.32843 20.6716C2.22386 19.567 2.22386 17.7761 3.32843 16.6716L9.5 10.5"
        stroke="currentColor" stroke-linecap="round" />
    <path d="M5.50896 18.5H5.5" stroke="currentColor" stroke-linecap="round" stroke-linejoin="round" />
</svg>