<svg id="general-voki-taking-process-settings-free-flow-icon" xmlns="http://www.w3.org/2000/svg" viewBox="0 0 24 24"
    fill="none">
    <path d="M19.9999 17L3.99994 17" stroke="currentColor" stroke-linecap="round" stroke-linejoin="round"></path>
    <path d="M17 14C17 14 19.9999 16.2095 19.9999 17C19.9999 17.7906 16.9999 20 16.9999 20" stroke="currentColor"
        stroke-linecap="round" stroke-linejoin="round"></path>
    <path d="M4.99994 7L19.9999 7" stroke="currentColor" stroke-linecap="round" stroke-linejoin="round"></path>
    <path d="M6.99991 4C6.99991 4 3.99994 6.20947 3.99994 7.00002C3.99993 7.79058 6.99994 10 6.99994 10"
        stroke="currentColor" stroke-linecap="round" stroke-linejoin="round"></path>
</svg>
<svg id="general-voki-taking-process-settings-force-sequential-flow-icon" xmlns="http://www.w3.org/2000/svg"
    viewBox="0 0 24 24" fill="none">
    <path d="M20.0001 11.9998L4.00012 11.9998" stroke="currentColor" stroke-linecap="round" stroke-linejoin="round" />
    <path d="M15.0003 17C15.0003 17 20.0002 13.3176 20.0002 12C20.0002 10.6824 15.0002 7 15.0002 7" stroke="currentColor"
        stroke-linecap="round" stroke-linejoin="round" />
</svg>
<svg id="general-voki-taking-process-settings-questions-ordered-icon" xmlns="http://www.w3.org/2000/svg"
    viewBox="0 0 24 24" fill="none">
    <path
        d="M3 4.5C3 3.67157 3.67157 3 4.5 3H6.5C7.32843 3 8 3.67157 8 4.5V6.5C8 7.32843 7.32843 8 6.5 8H4.5C3.67157 8 3 7.32843 3 6.5V4.5Z"
        stroke="currentColor"></path>
    <path
        d="M3 17.5C3 16.6716 3.67157 16 4.5 16H6.5C7.32843 16 8 16.6716 8 17.5V19.5C8 20.3284 7.32843 21 6.5 21H4.5C3.67157 21 3 20.3284 3 19.5V17.5Z"
        stroke="currentColor"></path>
    <path d="M8.00002 18.5H21M16 5.5H8.00002M16.3235 7.67649L7.64868 16.3513" stroke="currentColor"
        stroke-linecap="round" stroke-linejoin="round"></path>
    <path
        d="M16 4.5C16 3.67157 16.6716 3 17.5 3H19.5C20.3284 3 21 3.67157 21 4.5V6.5C21 7.32843 20.3284 8 19.5 8H17.5C16.6716 8 16 7.32843 16 6.5V4.5Z"
        stroke="currentColor"></path>
    <path d="M18 21L19.3883 20.0537C20.4628 19.3213 21 18.9551 21 18.5C21 18.0449 20.4628 17.6787 19.3883 16.9463L18 16"
        stroke="currentColor" stroke-linecap="round" stroke-linejoin="round"></path>
</svg>
<svg id="general-voki-taking-process-settings-questions-shuffled-icon" xmlns="http://www.w3.org/2000/svg"
    viewBox="0 0 24 24" fill="none">
    <path
        d="M19.5576 4L20.4551 4.97574C20.8561 5.41165 21.0566 5.62961 20.9861 5.81481C20.9155 6 20.632 6 20.0649 6C18.7956 6 17.2771 5.79493 16.1111 6.4733C15.3903 6.89272 14.8883 7.62517 14.0392 9M3 18H4.58082C6.50873 18 7.47269 18 8.2862 17.5267C9.00708 17.1073 9.50904 16.3748 10.3582 15"
        stroke="currentColor" stroke-linecap="round" stroke-linejoin="round" />
    <path
        d="M19.5576 20L20.4551 19.0243C20.8561 18.5883 21.0566 18.3704 20.9861 18.1852C20.9155 18 20.632 18 20.0649 18C18.7956 18 17.2771 18.2051 16.1111 17.5267C15.2976 17.0534 14.7629 16.1815 13.6935 14.4376L10.7038 9.5624C9.63441 7.81853 9.0997 6.9466 8.2862 6.4733C7.47269 6 6.50873 6 4.58082 6H3"
        stroke="currentColor" stroke-linecap="round" stroke-linejoin="round" />
</svg>