<svg width="125" height="32" xmlns="http://www.w3.org/2000/svg" xmlns:xlink="http://www.w3.org/1999/xlink"
    overflow="hidden">
    <g transform="translate(-381 -213)">
        <path
            d="M90.8816 14.1399C92.4042 14.1399 93.6777 14.6224 94.7026 15.5874 95.7273 16.5524 96.5746 18 97.2446 19.9301 97.8761 21.7482 98.0196 23.1748 97.6753 24.2098 97.3309 25.2448 96.4406 25.7622 95.0044 25.7622 93.4528 25.7622 92.1788 25.2377 91.1824 24.1888 90.186 23.1399 89.377 21.7203 88.7553 19.9301 88.0948 18.028 87.9321 16.5875 88.2673 15.6084 88.6025 14.6294 89.4739 14.1399 90.8816 14.1399ZM3.0677 10.1119 9.77028 29.4126 15.5585 29.4126 9.04546 10.6573ZM47.937 10.1119 54.6397 29.4126 60.4277 29.4126 53.9147 10.6573ZM30.8077 9.90213C28.6353 9.90213 27.3205 10.6014 26.8632 12.0001 25.4827 11.3287 24.1557 10.8112 22.8822 10.4475 21.6087 10.084 20.3551 9.90213 19.1215 9.90213 17.315 9.90213 16.0988 10.3846 15.4731 11.3497 14.8475 12.3147 14.8504 13.7064 15.4818 15.5245L20.3046 29.4126 26.0928 29.4126 21.8669 17.2447C21.4783 16.1258 21.3708 15.3357 21.5444 14.8741 21.7178 14.4126 22.196 14.1818 22.9789 14.1818 24.0231 14.1818 25.411 14.5875 27.1426 15.3986L27.1867 15.5245 32.0095 29.4126 37.7977 29.4126 33.5718 17.2447C33.1832 16.1258 33.0745 15.3357 33.2455 14.8741 33.4166 14.4126 33.8907 14.1818 34.6678 14.1818 35.7911 14.1818 37.1843 14.5875 38.8475 15.3986L43.7144 29.4126 49.5026 29.4126 42.9896 10.6573 37.0119 10.1119 37.58 11.7483C35.1802 10.5175 32.9229 9.90213 30.8077 9.90213ZM89.2604 9.90213C87.0881 9.90213 85.3997 10.3287 84.1955 11.1818 82.9912 12.035 82.2797 13.2168 82.0611 14.7273 81.8424 16.2378 82.0779 17.986 82.7675 19.9721 83.5736 22.2937 84.7012 24.2029 86.15 25.6993 87.5988 27.1958 89.2354 28.2867 91.0599 28.9721 92.8843 29.6573 94.7969 30 96.7977 30 98.9415 30 100.608 29.5524 101.798 28.6574 102.987 27.7622 103.689 26.5525 103.903 25.028 104.117 23.5035 103.898 21.8043 103.247 19.9301 102.412 17.5245 101.258 15.5804 99.7856 14.0979 98.3131 12.6154 96.6767 11.5454 94.8764 10.8881 93.076 10.2308 91.2041 9.90213 89.2604 9.90213ZM122.883 2.22383 116.452 2.22383 116.565 23.4126 102.003 2.22383 95.7864 2.22383 95.9029 2.55943 115.39 29.4126 122.121 29.4126 123 2.55943ZM2.77564 0.629409C2.08966 0.629409 1.50962 0.790245 1.03551 1.11192 0.561409 1.43359 0.247573 1.86712 0.0938997 2.41263-0.0596687 2.95804-0.0248096 3.55241 0.198477 4.19586 0.421763 4.8392 0.797257 5.42661 1.32496 5.95808 1.85266 6.48955 2.46526 6.91613 3.16286 7.2378 3.86046 7.55947 4.5523 7.7203 5.23828 7.7203 5.89569 7.7203 6.45448 7.55947 6.91445 7.2378 7.37442 6.91613 7.68365 6.48955 7.84193 5.95808 8.00032 5.42661 7.96776 4.8392 7.74447 4.19586 7.52119 3.55241 7.14339 2.95804 6.61098 2.41263 6.07856 1.86712 5.47068 1.43359 4.7871 1.11192 4.10353 0.790245 3.43304 0.629409 2.77564 0.629409ZM47.6449 0.629409C46.959 0.629409 46.3789 0.790245 45.9048 1.11192 45.4307 1.43359 45.1169 1.86712 44.9633 2.41263 44.8096 2.95804 44.8445 3.55241 45.0678 4.19586 45.291 4.8392 45.6665 5.42661 46.1942 5.95808 46.7219 6.48955 47.3345 6.91613 48.0321 7.2378 48.7297 7.55947 49.4216 7.7203 50.1076 7.7203 50.765 7.7203 51.3238 7.55947 51.7837 7.2378 52.2437 6.91613 52.5529 6.48955 52.7112 5.95808 52.8696 5.42661 52.837 4.8392 52.6138 4.19586 52.3905 3.55241 52.0127 2.95804 51.4803 2.41263 50.9479 1.86712 50.34 1.43359 49.6564 1.11192 48.9728 0.790245 48.3023 0.629409 47.6449 0.629409ZM66.4042 0 73.0051 19.0071 63.0499 10.5314 56.8559 10.5314 56.9584 10.8251 66.9322 19.1749 62.9106 29.077 63.0272 29.4126 69.8658 29.4126 73.3547 20.014 76.6186 29.4126 82.4068 29.4126 72.382 0.545509Z"
            fill="#5B57E2" fill-rule="evenodd" transform="matrix(-1 0 0 1 505 214)" />
    </g>
</svg>